HIERARCHY
ROOT Hips
{
	OFFSET 0.000000 0.000000 0.000000
	CHANNELS 6 Xposition Yposition Zposition Xrotation Yrotation Zrotation
	JOINT LeftUpLeg_virtual
	{
		OFFSET 0.000000 0.000000 0.000000
		CHANNELS 3 Xrotation Yrotation Zrotation
		JOINT LeftUpLeg
		{
			OFFSET 10.205400 -3.823500 0.155100
			CHANNELS 3 Xrotation Yrotation Zrotation
			JOINT LeftLeg
			{
				OFFSET 0.708757 -12.982077 0.567790
				CHANNELS 3 Xrotation Yrotation Zrotation
				JOINT LeftFoot
				{
					OFFSET -0.708756 -10.717838 -2.184338
					CHANNELS 3 Xrotation Yrotation Zrotation
					JOINT LeftToeBase
					{
						OFFSET 0.108149 -7.191104 7.560241
						CHANNELS 3 Xrotation Yrotation Zrotation
						JOINT LeftToe_End
						{
							OFFSET 0.070230 0.081724 4.490308
							CHANNELS 3 Xrotation Yrotation Zrotation
							End Site
							{
								OFFSET 0 0 0
							}
						}
					}
				}
			}
		}
	}
	JOINT RightUpLeg_virtual
	{
		OFFSET 0.000000 0.000000 0.000000
		CHANNELS 3 Xrotation Yrotation Zrotation
		JOINT RightUpLeg
		{
			OFFSET -10.205400 -3.823500 0.005500
			CHANNELS 3 Xrotation Yrotation Zrotation
			JOINT RightLeg
			{
				OFFSET -0.708756 -12.982134 0.610632
				CHANNELS 3 Xrotation Yrotation Zrotation
				JOINT RightFoot
				{
					OFFSET 0.708754 -10.717769 -1.945823
					CHANNELS 3 Xrotation Yrotation Zrotation
					JOINT RightToeBase
					{
						OFFSET -0.108140 -7.191069 7.372968
						CHANNELS 3 Xrotation Yrotation Zrotation
						JOINT RightToe_End
						{
							OFFSET -0.070227 0.081735 4.479403
							CHANNELS 3 Xrotation Yrotation Zrotation
							End Site
							{
								OFFSET 0 0 0
							}
						}
					}
				}
			}
		}
	}
	JOINT Spine_virtual
	{
		OFFSET 0.000000 0.000000 0.000000
		CHANNELS 3 Xrotation Yrotation Zrotation
		JOINT Spine
		{
			OFFSET 0.000000 6.876099 0.125700
			CHANNELS 3 Xrotation Yrotation Zrotation
			JOINT Spine1
			{
				OFFSET 0.000000 5.730043 0.104720
				CHANNELS 3 Xrotation Yrotation Zrotation
				JOINT Spine1_split
				{
					OFFSET 0.000000 5.730043 0.104720
					CHANNELS 3 Xrotation Yrotation Zrotation
					JOINT Spine2
					{
						OFFSET 0.000000 5.730043 0.104720
						CHANNELS 3 Xrotation Yrotation Zrotation
						JOINT Neck_virtual
						{
							OFFSET 0.000000 0.000000 0.000000
							CHANNELS 3 Xrotation Yrotation Zrotation
							JOINT Neck
							{
								OFFSET 0.000000 10.314075 0.188496
								CHANNELS 3 Xrotation Yrotation Zrotation
								JOINT Head
								{
									OFFSET 0.000000 7.643700 -2.377400
									CHANNELS 3 Xrotation Yrotation Zrotation
									JOINT HeadTop_End
									{
										OFFSET 0.000000 43.788605 -13.619600
										CHANNELS 3 Xrotation Yrotation Zrotation
										End Site
										{
											OFFSET 0 0 0
										}
									}
								}
							}
						}
						JOINT LeftShoulder_virtual
						{
							OFFSET 0.000000 0.000000 0.000000
							CHANNELS 3 Xrotation Yrotation Zrotation
							JOINT LeftShoulder
							{
								OFFSET 2.196100 4.412489 0.087492
								CHANNELS 3 Xrotation Yrotation Zrotation
								JOINT LeftShoulder_split
								{
									OFFSET 2.196100 4.412489 0.087492
									CHANNELS 3 Xrotation Yrotation Zrotation
									JOINT LeftArm
									{
										OFFSET 8.771219 -2.981674 -0.026999
										CHANNELS 3 Xrotation Yrotation Zrotation
										JOINT LeftForeArm
										{
											OFFSET 8.512804 0.000000 -0.000000
											CHANNELS 3 Xrotation Yrotation Zrotation
											JOINT LeftHand
											{
												OFFSET 18.484802 0.000000 -0.000000
												CHANNELS 3 Xrotation Yrotation Zrotation
												End Site
												{
													OFFSET 0 0 0
												}
											}
										}
									}
								}
							}
						}
						JOINT RightShoulder_virtual
						{
							OFFSET 0.000000 0.000000 0.000000
							CHANNELS 3 Xrotation Yrotation Zrotation
							JOINT RightShoulder
							{
								OFFSET -2.196100 4.412496 0.070690
								CHANNELS 3 Xrotation Yrotation Zrotation
								JOINT RightShoulder_split
								{
									OFFSET -2.196100 4.412496 0.070690
									CHANNELS 3 Xrotation Yrotation Zrotation
									JOINT RightArm
									{
										OFFSET -8.771282 -2.981682 -0.094208
										CHANNELS 3 Xrotation Yrotation Zrotation
										JOINT RightForeArm
										{
											OFFSET -8.494598 0.000000 0.000000
											CHANNELS 3 Xrotation Yrotation Zrotation
											JOINT RightHand
											{
												OFFSET -18.483803 0.000000 0.000001
												CHANNELS 3 Xrotation Yrotation Zrotation
												End Site
												{
													OFFSET 0 0 0
												}
											}
										}
									}
								}
							}
						}
					}
				}
			}
		}
	}
}
MOTION
Frames: 9
Frame Time: 0.03333333
2.702943 30.655773 -0.275969 0.000000 0.000000 0.000000 5.738357 -14.601761 -1.080868 -33.935634 3.162444 16.705676 58.228606 8.593316 -1.019024 -26.538471 7.683343 -13.982747 -2.980613 -2.299666 -2.603511 0.000000 0.000000 0.000000 5.013117 -11.713734 -0.414645 -14.899402 -7.683779 -17.166811 49.183455 -9.142208 -7.796117 -24.444706 -2.033073 16.921121 -16.184535 -4.624923 8.316405 0.000000 0.000000 0.000000 6.216445 -10.000735 0.319008 12.741201 2.306617 -2.535290 8.050599 6.407365 -2.556785 0.064600 -1.473363 1.064242 0.000000 0.000000 0.000000 -1.855774 6.008504 -0.772382 -5.654537 1.084612 0.127737 -7.989440 8.068388 6.114442 0.000000 0.000000 0.000000 -3.470711 6.014507 -0.881398 -2.311770 0.403742 -3.078132 1.411878 -1.149121 1.087104 -13.466270 1.226115 -55.223466 -12.758311 -31.986667 -5.045010 0.000000 0.000000 0.000000 -3.928123 5.261300 -0.940097 5.222104 -9.460595 9.429624 1.540991 -2.432373 -3.149447 24.414035 58.107821 23.759045 16.194262 29.419558 4.964627 0.000000 0.000000 0.000000 
2.647079 30.875656 -0.274563 0.000000 0.000000 0.000000 6.107741 -14.523595 -1.655753 -33.717816 2.582342 17.290943 56.075293 8.695192 -0.616668 -25.116960 7.271132 -14.277471 -2.933164 -2.288091 -3.111084 0.000000 0.000000 0.000000 5.181418 -11.992392 -1.030416 -15.059701 -7.178559 -16.146011 44.498174 -6.295663 -7.096452 -23.090126 -0.820278 17.105384 -13.868854 -3.103328 5.984603 0.000000 0.000000 0.000000 6.468265 -9.882282 -0.019879 12.860343 2.546585 -2.219578 7.701087 6.444772 -2.448694 -0.014847 -1.742580 0.976156 0.000000 0.000000 0.000000 -2.215182 5.959317 -0.565150 -5.817831 1.154196 -0.047070 -7.596584 7.632286 6.704559 0.000000 0.000000 0.000000 -3.848077 5.985437 -0.854697 -2.287594 1.145570 -3.426456 1.544489 -1.373958 1.300546 -13.321861 1.465194 -55.268709 -11.952141 -30.745147 -4.281654 0.000000 0.000000 0.000000 -4.236477 5.276492 -0.806739 4.770364 -8.116631 9.099161 1.235717 -2.387211 -3.662553 16.932474 54.484491 29.641061 15.170152 26.502203 6.761623 0.000000 0.000000 0.000000 
2.582061 31.081230 -0.273817 0.000000 0.000000 0.000000 6.298412 -14.633148 -2.111391 -33.326788 2.252304 17.727181 54.255666 8.746053 -0.297815 -23.993666 6.942828 -14.130680 -2.819067 -2.309787 -3.420107 0.000000 0.000000 0.000000 5.210094 -12.211069 -1.543944 -14.311633 -6.548117 -15.094081 39.043704 -4.230728 -6.317452 -22.246722 -0.621781 17.004097 -11.050495 -2.039695 4.476125 0.000000 0.000000 0.000000 6.510815 -9.853031 -0.312950 12.989931 2.768579 -1.919888 7.341930 6.453604 -2.378580 0.073234 -2.071690 0.924251 0.000000 0.000000 0.000000 -2.643525 5.892587 -0.425066 -6.017746 1.228962 -0.203232 -7.068160 7.018436 7.409095 0.000000 0.000000 0.000000 -4.217932 5.929802 -0.881854 -2.235161 1.858733 -3.725494 1.564980 -1.605482 1.355219 -13.164642 1.946211 -55.415767 -11.199146 -29.523848 -3.567556 0.000000 0.000000 0.000000 -4.541981 5.280690 -0.727323 4.214066 -6.893516 8.596038 0.800832 -2.228342 -3.700561 10.987845 49.747642 35.483147 15.160064 24.325761 6.946723 0.000000 0.000000 0.000000 
2.534375 31.249512 -0.264830 0.000000 0.000000 0.000000 6.217602 -14.776969 -2.449160 -32.714701 2.193350 17.895104 52.868929 8.792167 -0.090292 -23.363410 6.881896 -13.575976 -2.663399 -2.328902 -3.513634 0.000000 0.000000 0.000000 5.055550 -12.279703 -1.947579 -13.040101 -5.716408 -14.092460 33.761854 -2.855966 -5.667042 -21.931825 -1.210964 16.769667 -8.185350 -1.450204 3.901555 0.000000 0.000000 0.000000 6.250041 -9.900730 -0.543879 13.122795 2.899121 -1.669052 6.992707 6.427806 -2.299714 0.278829 -2.237006 0.923806 0.000000 0.000000 0.000000 -3.114350 5.806926 -0.314142 -6.155032 1.272126 -0.393949 -6.462647 6.235779 8.214114 0.000000 0.000000 0.000000 -4.578404 5.846888 -0.901181 -2.163874 2.488586 -3.902233 1.479253 -1.946185 1.392283 -12.971415 2.443036 -55.666848 -10.505358 -28.450183 -2.900639 0.000000 0.000000 0.000000 -4.844211 5.272128 -0.641677 3.606438 -5.779992 8.086063 0.270408 -2.190233 -3.365554 6.824258 44.532721 41.019107 15.731775 22.782463 5.986418 0.000000 0.000000 0.000000 
2.502149 31.391184 -0.235149 0.000000 0.000000 0.000000 5.911811 -14.789508 -2.619012 -31.837148 2.345649 17.803600 51.741548 8.821082 0.005979 -23.119212 7.084113 -12.912451 -2.687119 -2.325167 -3.401546 0.000000 0.000000 0.000000 4.780527 -12.119251 -2.184354 -11.633105 -4.755205 -13.338647 29.500956 -1.996769 -5.273471 -21.969845 -2.208612 16.601210 -5.753164 -1.161054 4.030139 0.000000 0.000000 0.000000 5.722352 -10.049240 -0.704980 13.225973 2.885014 -1.502451 6.667983 6.371025 -2.186495 0.497893 -2.245242 0.938707 0.000000 0.000000 0.000000 -3.587649 5.704935 -0.197059 -6.152164 1.296890 -0.685667 -5.831208 5.307592 9.086730 0.000000 0.000000 0.000000 -4.932516 5.741154 -0.865295 -2.084225 2.996160 -3.924150 1.450203 -2.283743 1.465190 -12.839282 2.775443 -56.021577 -9.877997 -27.571665 -2.260416 0.000000 0.000000 0.000000 -5.137489 5.237987 -0.522941 2.979448 -4.795065 7.671434 -0.146103 -2.158876 -3.022599 4.386723 39.554076 45.912354 16.433589 21.871915 4.442708 0.000000 0.000000 0.000000 
2.466382 31.514202 -0.240770 0.000000 0.000000 0.000000 5.451411 -14.660989 -2.613558 -30.746851 2.607840 17.446736 50.790209 8.728358 0.036028 -22.922311 7.416901 -12.404377 -3.001959 -2.299635 -3.159917 0.000000 0.000000 0.000000 4.429709 -11.713530 -2.253415 -10.593716 -3.833610 -12.977239 26.587247 -1.367500 -5.152194 -21.937147 -3.205781 16.697639 -4.130806 -1.030134 4.463677 0.000000 0.000000 0.000000 5.056728 -10.174163 -0.778525 13.246458 2.740337 -1.420291 6.359531 6.295284 -2.030181 0.529002 -2.066812 0.935199 0.000000 0.000000 0.000000 -4.028315 5.587936 -0.057379 -5.951618 1.309084 -1.124300 -5.192345 4.331693 9.960265 0.000000 0.000000 0.000000 -5.286680 5.620663 -0.758072 -2.000474 3.374272 -3.825182 1.450175 -2.606985 1.605463 -12.794363 2.898170 -56.444396 -9.350872 -26.924503 -1.676548 0.000000 0.000000 0.000000 -5.419716 5.178088 -0.359887 2.366103 -3.940068 7.332780 -0.410887 -2.394168 -2.817502 3.261179 35.203990 50.197867 16.868272 21.486699 2.761212 0.000000 0.000000 0.000000 
2.419001 31.626055 -0.215023 0.000000 0.000000 0.000000 4.959788 -14.419147 -2.442510 -29.552541 2.961048 16.909421 49.788934 8.475136 0.044975 -22.536218 7.720816 -12.135776 -3.350421 -2.275397 -2.907634 0.000000 0.000000 0.000000 4.017754 -11.209005 -2.158840 -10.139927 -3.296931 -13.068974 25.134053 -0.853860 -5.132461 -21.305879 -3.937315 17.286900 -3.665160 -0.922462 4.811863 0.000000 0.000000 0.000000 4.344179 -10.207367 -0.746115 13.179745 2.492871 -1.411397 6.067425 6.206552 -1.851958 0.417872 -1.789363 0.874380 0.000000 0.000000 0.000000 -4.428246 5.464773 0.088903 -5.539401 1.328986 -1.741771 -4.505245 3.366067 10.767455 0.000000 0.000000 0.000000 -5.652796 5.496515 -0.604920 -1.916688 3.627363 -3.684381 1.563438 -2.822704 1.718354 -12.824993 2.806596 -56.946596 -8.944417 -26.447493 -1.190705 0.000000 0.000000 0.000000 -5.679517 5.099804 -0.169735 1.797761 -3.210614 7.032510 -0.593541 -2.929680 -2.878997 3.081096 31.611844 53.761877 16.708833 21.622383 1.308133 0.000000 0.000000 0.000000 
2.356547 31.733116 -0.166035 0.000000 0.000000 0.000000 4.558777 -14.163260 -2.120104 -28.300389 3.375165 16.348503 48.570500 8.095490 0.034858 -21.968614 7.949219 -11.989672 -3.360620 -2.266017 -2.784352 0.000000 0.000000 0.000000 3.620013 -10.786599 -1.916502 -10.244236 -3.308843 -13.457016 24.590792 -0.489949 -5.120752 -20.191053 -4.326018 18.103884 -4.113269 -0.771552 4.882560 0.000000 0.000000 0.000000 3.739730 -10.131926 -0.624171 13.014274 2.196936 -1.460513 5.779553 6.115608 -1.673698 0.209432 -1.594868 0.736271 0.000000 0.000000 0.000000 -4.797388 5.352330 0.227684 -4.985044 1.387323 -2.522879 -3.775796 2.445871 11.481797 0.000000 0.000000 0.000000 -6.026591 5.380412 -0.438871 -1.835611 3.801901 -3.604118 1.701103 -2.946232 1.693274 -12.820362 2.633208 -57.539925 -8.689026 -26.058837 -0.827903 0.000000 0.000000 0.000000 -5.930485 5.012745 0.019712 1.289823 -2.586000 6.765026 -0.926479 -3.608943 -2.927760 3.601258 28.585537 56.711088 15.818607 22.016913 0.315963 0.000000 0.000000 0.000000 
2.268830 31.827536 -0.117455 0.000000 0.000000 0.000000 4.259447 -13.938069 -1.763766 -27.089874 3.868593 15.873413 47.038010 7.634540 0.023756 -21.317546 8.138450 -11.878274 -3.017466 -2.261714 -2.807746 0.000000 0.000000 0.000000 3.236644 -10.532131 -1.614526 -10.664138 -3.925559 -13.911860 24.441729 -0.397127 -4.994362 -18.833815 -4.433491 18.638094 -4.833866 -0.506051 4.684186 0.000000 0.000000 0.000000 3.303793 -9.956366 -0.475470 12.774237 1.911596 -1.524386 5.500858 6.035279 -1.507899 -0.034880 -1.420176 0.635906 0.000000 0.000000 0.000000 -5.155239 5.266567 0.347083 -4.389104 1.502055 -3.408024 -3.014468 1.599682 12.086087 0.000000 0.000000 0.000000 -6.405245 5.290689 -0.285273 -1.754277 3.948137 -3.662423 1.757851 -2.984223 1.503973 -12.699100 2.525449 -58.208443 -8.593657 -25.663056 -0.606273 0.000000 0.000000 0.000000 -6.187745 4.942402 0.191210 0.848095 -2.014127 6.552928 -1.384758 -4.160750 -2.877992 4.641080 25.901732 59.276644 14.205686 22.383867 -0.154382 0.000000 0.000000 0.000000 
